PathFileType	4	(X/Y/Z)	C:\Users\Basilio\Documents\Thesis Gigler\squatting_fais\c3dfiles\058\SLS_front_pre3\markers_experimental.trc
DataRate	CameraRate	NumFrames	NumMarkers	Units	OrigDataRate	OrigDataStartFrame	OrigNumFrames
200.000000	200.000000	4	61	mm	200.000000	157	1263
Frame#	Time	FHD			LBHD			RBHD			C7			T10			CLAV			LSHO			LUUPA			LMUPA			LDUPA			LLEP			LMEP			LRAD			LUL			LRFIN			RSHO			RUPA1			RMUPA			RDUPA			RLEP			RMEP			RRAD			RUL			RUFIN			LASI			RASI			USACR			LSACR			RSACR			LTHI1			LTHI2			LTHI3			LTHI4			LLFC			LMFC			LTIB1			LTIB2			LTIB3			LTIB4			LLMAL			LMMAL			LHEE			LMT1			LMT2			LMT5			RTHI			RTHI2			RTHI3			RTHI4			RLFC			RMFC			RTIB1			RTIB2			RTIB3			RTIB4			RLMAL			RMMAL			RHEE			RMT1			RMT2			RMT5			
		X1	Y1	Z1	X2	Y2	Z2	X3	Y3	Z3	X4	Y4	Z4	X5	Y5	Z5	X6	Y6	Z6	X7	Y7	Z7	X8	Y8	Z8	X9	Y9	Z9	X10	Y10	Z10	X11	Y11	Z11	X12	Y12	Z12	X13	Y13	Z13	X14	Y14	Z14	X15	Y15	Z15	X16	Y16	Z16	X17	Y17	Z17	X18	Y18	Z18	X19	Y19	Z19	X20	Y20	Z20	X21	Y21	Z21	X22	Y22	Z22	X23	Y23	Z23	X24	Y24	Z24	X25	Y25	Z25	X26	Y26	Z26	X27	Y27	Z27	X28	Y28	Z28	X29	Y29	Z29	X30	Y30	Z30	X31	Y31	Z31	X32	Y32	Z32	X33	Y33	Z33	X34	Y34	Z34	X35	Y35	Z35	X36	Y36	Z36	X37	Y37	Z37	X38	Y38	Z38	X39	Y39	Z39	X40	Y40	Z40	X41	Y41	Z41	X42	Y42	Z42	X43	Y43	Z43	X44	Y44	Z44	X45	Y45	Z45	X46	Y46	Z46	X47	Y47	Z47	X48	Y48	Z48	X49	Y49	Z49	X50	Y50	Z50	X51	Y51	Z51	X52	Y52	Z52	X53	Y53	Z53	X54	Y54	Z54	X55	Y55	Z55	X56	Y56	Z56	X57	Y57	Z57	X58	Y58	Z58	X59	Y59	Z59	X60	Y60	Z60	X61	Y61	Z61	

158	0.785	-306.6820373535157	1804.73486328125	-650.2684326171876	-464.789031982422	1753.224609375	-718.7835693359376	-298.6324157714844	1811.315185546875	-792.5694580078127	-483.3233032226564	1596.84033203125	-737.9994506835939	-481.8356933593751	1285.057006835938	-730.0901489257814	-316.7720336914063	1562.519287109375	-722.9484252929689	-333.6248779296876	1612.278930664063	-880.2534790039065	-189.5135498046875	1518.595703125	-995.456970214844	-159.2005157470703	1552.99609375	-974.4250488281252	-120.2780838012696	1510.942626953125	-992.3291015625002	-46.33683013916016	1505.508422851563	-979.8416137695315	-45.37777709960938	1450.48828125	-941.5299072265627	nan	nan	nan	224.6700439453126	1511.576538085938	-964.086853027344	322.5939636230469	1510.905883789063	-885.161804199219	-349.1359558105469	1611.5888671875	-563.9734497070314	-206.9208221435547	1498.51318359375	-444.714080810547	-177.2664642333985	1533.720825195313	-463.5272216796876	-137.8674774169922	1498.154663085938	-438.918182373047	-72.14145660400392	1480.178588867188	-439.1038818359376	-66.63663482666017	1420.914184570313	-490.4647827148439	201.9806518554688	1479.656127929688	-507.5740051269532	198.1565399169922	1490.043334960938	-426.3973083496095	294.5728759765626	1498.223022460938	-489.3625488281251	-299.6246032714844	1108.799194335938	-882.1851806640627	-278.6649475097657	1085.925415039063	-642.2295532226564	-485.3994445800782	1162.50341796875	-729.8223266601564	-495.335174560547	1132.893920898438	-759.1871948242189	-483.0467529296876	1128.109008789063	-702.9790649414064	-246.0412750244141	855.9383544921877	-960.406921386719	-189.1750793457032	794.4732666015627	-950.6712646484377	-151.8826141357422	808.280212402344	-918.606140136719	-194.3325805664063	734.6087036132814	-948.8211059570315	-152.1562805175782	643.3931274414064	-939.2212524414065	-148.1536560058594	630.8936767578126	-810.6151123046877	-52.38712310791017	537.8064575195314	-899.425476074219	-78.1962356567383	488.8514709472657	-963.8909912109377	-42.64498901367188	493.2316284179689	-935.6734008789065	-11.67806339263916	417.4504699707032	-914.118591308594	14.54848766326905	213.2635192871094	-945.3103637695315	19.11649703979493	230.7048797607422	-854.032409667969	-33.97040939331055	152.4765319824219	-901.2295532226565	167.241943359375	232.7435150146485	-856.809509277344	177.2255096435547	239.9724578857422	-902.294860839844	148.8413848876953	201.6830444335938	-960.513366699219	-369.3559875488282	868.1223144531252	-585.2246093750001	-330.5717773437501	814.247497558594	-589.1671142578126	-297.7386779785157	815.507019042969	-592.7393188476564	-357.9739379882813	736.3826293945314	-607.0726928710939	-349.2753601074219	557.3611450195314	-634.8602905273439	-327.8121643066407	551.5005493164064	-771.656921386719	-303.3271484375001	357.1588745117188	-735.0233154296876	-333.3652038574219	275.6694946289063	-668.1606445312501	-301.1855163574219	271.2009582519532	-704.4223022460939	-314.1882019042969	227.7136688232422	-740.2156982421876	-369.8407287597657	120.7427062988282	-698.6375122070314	-345.3113098144532	140.9080810546875	-788.311462402344	-437.9165039062501	100.5443420410157	-755.9298706054689	-230.2017822265626	56.47027587890626	-774.4725341796877	-220.7553253173829	61.63901138305665	-720.1246337890626	-269.8600769042969	32.35411071777344	-667.0653076171876	
159	0.79	-306.8627624511719	1804.747680664063	-649.9603271484376	-465.0313415527345	1753.293090820313	-718.3346557617189	-298.5881347656251	1811.520141601563	-792.0239257812502	-483.5107421875001	1596.808837890625	-737.6438598632814	-482.0028076171876	1285.050659179688	-729.8245239257814	-316.9572753906251	1562.606079101563	-722.7172851562501	-333.7953186035157	1612.7177734375	-879.7938232421877	-189.5332946777344	1519.40380859375	-994.9099121093752	-159.5361328125	1553.671142578125	-973.7235107421877	-120.0954513549805	1511.8740234375	-991.5130615234377	-46.09721374511719	1506.333862304688	-979.058532714844	-44.78499603271485	1451.556396484375	-941.0168457031252	nan	nan	nan	225.0316162109376	1513.451171875	-963.0238037109377	322.4127197265626	1513.080444335938	-884.0638427734377	-349.3871154785157	1611.711547851563	-563.9312744140626	-206.6509704589844	1499.315185546875	-444.783905029297	-176.600326538086	1534.755615234375	-464.0753479003907	-137.4336090087891	1499.386474609375	-439.1419677734376	-71.62198638916017	1481.718627929688	-439.5687255859376	-66.05892944335939	1422.396484375	-490.9360351562501	202.3013610839844	1482.462280273438	-508.8810119628907	198.6466217041016	1492.782104492188	-428.8784790039064	295.1011047363282	1501.058349609375	-491.0812988281251	-299.6188659667969	1109.109130859375	-881.9431762695315	-278.6894836425782	1085.94482421875	-641.9877929687501	-485.4389953613282	1162.457397460938	-729.6473999023439	-495.0759582519532	1132.85595703125	-759.0200805664064	-483.5174865722657	1128.097778320313	-702.5964355468751	-244.9118957519532	856.968688964844	-960.076110839844	-188.2848815917969	795.8786621093752	-950.2419433593752	-150.7025451660157	809.7796020507815	-918.1662597656252	-193.0547943115235	735.7581176757814	-948.362731933594	-150.5564117431641	645.1479492187501	-938.7031860351565	-146.1298217773438	632.5394287109376	-809.8271484375002	-49.47769927978517	539.8229980468751	-898.7818603515627	-74.69502258300783	490.5687866210939	-963.2676391601565	-39.59033203125001	495.6537475585939	-935.3422851562502	-7.695950508117678	420.1983642578126	-913.7100219726565	20.2100830078125	216.0160369873047	-944.5422363281252	24.72546958923341	233.7388610839844	-853.224792480469	-27.52140808105469	154.7075805664063	-900.4511718750002	173.2130432128907	237.2776641845704	-855.9710083007815	182.7937316894532	244.2575073242188	-901.4312744140627	154.8871765136719	205.9826812744141	-959.7115478515627	-369.3846435546876	868.0733032226565	-585.1664428710939	-330.5713806152344	814.1904296875002	-589.0462646484376	-297.7506713867188	815.502868652344	-592.6636962890626	-357.9837646484376	736.3428344726564	-606.9528808593751	-349.1885375976563	557.3055419921876	-634.8742675781251	-327.6085815429688	551.5578613281251	-771.6036376953127	-303.3310852050782	357.0895690917969	-735.0202636718751	-333.3624572753907	275.6578979492188	-668.1372070312501	-301.1856994628907	271.2332458496094	-704.4213867187501	-314.1658020019532	227.9112243652344	-740.1772460937501	-369.8077697753907	120.7598342895508	-698.6786499023439	-345.3475952148438	140.9597778320313	-788.3956298828127	-437.8956298828126	100.5701217651367	-755.9581298828126	-230.1494445800782	56.48724365234376	-774.4768066406252	-220.7406005859376	61.65279006958009	-720.1611938476564	-269.9352722167969	32.42039108276368	-667.0293579101564	
160	0.795	-307.0681457519532	1804.87548828125	-649.5487670898439	-465.1570129394532	1753.359985351563	-718.1066894531251	-298.8525390625001	1811.680786132813	-791.580993652344	-483.6866455078126	1596.879150390625	-737.3326416015626	-482.1329040527345	1285.087890625	-729.4963989257814	-317.0327758789063	1562.77734375	-722.5266113281251	-333.9318237304688	1612.82958984375	-879.4119873046877	-189.3861694335938	1520.154907226563	-994.488952636719	-159.6119079589844	1554.716796875	-973.1060791015627	-120.0706100463867	1512.641845703125	-990.7863769531252	-45.82843780517579	1507.73974609375	-978.1536254882815	-44.48396682739259	1452.22021484375	-939.7835083007815	nan	nan	nan	224.9564208984376	1515.22900390625	-961.908142089844	322.3552246093751	1515.4541015625	-883.006530761719	-349.4555969238282	1611.870483398438	-563.7274780273439	-206.2661590576172	1500.504028320313	-444.9351501464845	-176.5308532714844	1535.71630859375	-464.2898254394532	-136.8699493408203	1500.62158203125	-439.7806396484376	-70.95605468750001	1483.161865234375	-440.0865478515626	-65.1114959716797	1424.019409179688	-491.5270996093751	202.6623077392579	1484.958740234375	-510.2249755859376	199.3014373779297	1495.56591796875	-430.0796508789064	295.5900878906251	1504.173706054688	-492.6887817382814	-299.6590576171876	1109.391235351563	-881.756042480469	-278.6805114746094	1086.103881835938	-641.7630615234376	-485.5445251464845	1162.544921875	-729.3648681640626	-495.1582641601564	1132.872314453125	-758.7770385742189	-483.549285888672	1128.050048828125	-702.3685913085939	-244.2835845947266	858.086608886719	-959.6599731445315	-186.9085083007813	797.1898193359377	-949.8625488281252	-149.8581085205078	811.1445312500002	-917.428405761719	-191.3651733398438	737.1335449218751	-948.1876220703127	-148.80859375	646.6004028320314	-938.2791748046877	-144.6349029541016	633.8486328125001	-809.6906738281252	-46.96770858764649	542.3444824218751	-898.190612792969	-71.6268997192383	492.9457397460939	-962.8470458984377	-36.51696395874024	497.562957763672	-934.5186767578127	-4.047113895416261	422.6435546875001	-912.820007324219	26.08454895019532	219.0882720947266	-943.6904296875002	30.38028717041016	236.598617553711	-852.455993652344	-21.54800796508789	157.5509185791016	-899.4812011718752	178.8411254882813	241.338851928711	-855.3482666015627	188.188705444336	248.8512268066407	-900.7185668945315	160.6482238769532	210.1365203857422	-958.9029541015627	-369.3903198242188	868.0474853515627	-584.9995117187501	-330.5632934570313	814.185241699219	-588.8869018554689	-297.6896667480469	815.427673339844	-592.4853515625001	-357.9544982910157	736.2620849609376	-606.8099975585939	-349.1522216796876	557.3023071289064	-634.8895263671876	-327.4362792968751	551.6978149414064	-771.580993652344	-303.3242492675782	357.1523132324219	-735.0230712890626	-333.3387145996094	275.6606750488282	-668.2080078125001	-301.2140502929688	271.2383117675782	-704.5404663085939	-314.1644897460938	227.7656555175782	-740.1746215820314	-369.7676086425782	120.7980346679688	-698.7180786132814	-345.4445190429688	140.9359436035157	-788.4378662109377	-437.8949584960939	100.5762634277344	-755.9661865234376	-230.2438354492188	56.51571273803712	-774.5716552734377	-220.7684020996094	61.68998336791994	-720.1677856445314	-269.9589843750001	32.42848205566407	-667.0710449218751	
161	0.8	-307.3075561523438	1804.643798828125	-649.1198120117189	-465.5751342773439	1753.321044921875	-717.7987670898439	-299.0381164550782	1811.759155273438	-791.2199707031252	-483.8392028808595	1596.902099609375	-737.1097412109376	-482.1660766601564	1285.1923828125	-729.1869506835939	-317.1634216308594	1562.838500976563	-722.2814331054689	-334.0615844726563	1613.015258789063	-879.105163574219	-189.4519958496094	1520.891357421875	-993.8928222656252	-159.4644317626953	1555.466918945313	-972.4985351562502	-119.9738922119141	1513.593627929688	-990.1398925781252	-46.14168930053712	1508.334106445313	-977.097351074219	-45.21062088012696	1455.622314453125	-939.309509277344	nan	nan	nan	224.9507598876954	1516.906982421875	-960.7919921875002	322.3446350097657	1517.336791992188	-881.934997558594	-349.5710144042969	1611.98974609375	-563.6376342773439	-206.0457763671876	1500.95263671875	-444.8717041015626	-176.3370056152344	1536.681884765625	-464.3887329101564	-136.4617156982422	1501.699951171875	-439.783660888672	-70.3852005004883	1484.369140625	-440.5173339843751	-64.60115051269533	1425.510498046875	-492.0580139160157	203.4356689453126	1487.536743164063	-511.831756591797	199.9994354248047	1498.232543945313	-431.3638916015626	295.5174865722657	1506.5693359375	-494.6196289062501	-299.6896362304688	1109.654907226563	-881.584899902344	-278.6838073730469	1086.146728515625	-641.4810180664064	-485.7937927246095	1162.475463867188	-728.9498901367189	-495.234832763672	1132.853393554688	-758.4968261718751	-483.7086791992189	1128.05224609375	-702.1334228515626	-243.2412414550782	859.0384521484377	-959.4291992187502	-185.6042175292969	798.349060058594	-949.4183349609377	-148.9917755126953	812.501647949219	-917.0213012695315	-189.7501831054688	738.5111694335939	-947.7056274414065	-146.9320831298828	648.0498657226564	-937.8229980468752	-142.7173004150391	635.4456787109376	-809.6362915039065	-44.34920883178712	544.5565795898439	-897.6502685546877	-68.27407836914064	494.7489624023439	-962.2563476562502	-33.22608947753907	500.4107360839845	-934.1009521484377	-0.5241501927375795	425.4894409179689	-912.4467773437502	31.71788024902344	222.1946868896485	-942.8919677734377	35.96636199951173	239.5842895507813	-851.6809082031252	-15.34361267089844	160.1416320800782	-898.7425537109377	183.838134765625	245.160873413086	-854.656433105469	193.9402160644532	252.6152343750001	-900.0905761718752	166.6749420166016	214.4815216064454	-958.1688232421877	-369.4263916015626	867.9963989257815	-584.9177856445314	-330.6480102539063	814.1692504882815	-588.7203369140626	-297.7297058105469	815.4355468750002	-592.3496093750001	-357.9991760253907	736.1818847656251	-606.7099609375001	-349.0459289550782	557.2943115234376	-634.9373779296876	-327.1409912109376	551.8001708984376	-771.5923461914065	-303.2961120605469	357.1886291503907	-735.1212158203126	-333.3314514160157	275.6818237304688	-668.2672729492189	-300.9269714355469	271.2030944824219	-704.4130859375001	-314.2098083496094	227.9376373291016	-740.3152465820314	-369.7057800292969	120.8769607543946	-698.8179321289064	-345.3853454589844	140.9308166503907	-788.528503417969	-437.8974609375001	100.5784683227539	-756.0472412109376	-229.3185119628907	56.66662597656251	-773.7633056640627	-220.6986694335938	61.73353576660158	-720.2083740234376	-270.0009155273438	32.51049804687501	-667.1068725585939	
